<svg width="39" height="40" viewBox="0 0 39 40" fill="none" xmlns="http://www.w3.org/2000/svg">
<g clip-path="url(#clip0_39_128)">
<path d="M7.12838 14.3496C6.67013 14.8956 5.94009 15.3282 5.21128 15.2649C5.115 14.5287 5.47819 13.7402 5.89744 13.2515C6.35447 12.6945 7.15397 12.2948 7.80234 12.2619C7.87913 13.0309 7.57931 13.7865 7.12959 14.3496H7.12838ZM7.79503 15.4099C6.73594 15.3453 5.82675 16.0181 5.32463 16.0181C4.81153 16.0181 4.0425 15.4416 3.20522 15.4611C2.11931 15.4745 1.10409 16.0948 0.552001 17.093C-0.59728 19.0783 0.253407 22.018 1.35759 23.6365C1.8975 24.436 2.54344 25.3122 3.39534 25.2879C4.20094 25.255 4.52513 24.7553 5.49647 24.7553C6.48 24.7553 6.75909 25.2879 7.61709 25.2684C8.49825 25.255 9.05644 24.4689 9.59634 23.6694C10.2118 22.7614 10.4653 21.8717 10.4787 21.8278C10.4653 21.8083 8.77125 21.1551 8.75906 19.1868C8.74566 17.5354 10.0912 16.7493 10.1484 16.7042C9.39281 15.5622 8.19966 15.4416 7.79381 15.4111L7.79503 15.4099ZM13.9083 13.1747V25.1855H15.7547V21.0795H18.308C20.637 21.0795 22.275 19.461 22.275 17.1247C22.275 14.7835 20.6699 13.1759 18.3713 13.1759L13.9083 13.1747ZM15.7547 14.7493H17.8814C19.4804 14.7493 20.3957 15.6122 20.3957 17.1296C20.3957 18.6469 19.4804 19.5171 17.8692 19.5171H15.7547V14.7493ZM25.6375 25.2745C26.799 25.2745 27.8715 24.6846 28.3614 23.7437H28.4004V25.1855H30.1067V19.2051C30.1067 17.4793 28.7368 16.3569 26.6223 16.3569C24.6674 16.3569 23.2195 17.4927 23.1696 19.0479H24.8258C24.966 18.3057 25.6388 17.823 26.5723 17.823C27.7021 17.823 28.331 18.3556 28.331 19.3343V19.9936L26.0336 20.1338C23.8874 20.2666 22.732 21.149 22.732 22.6919C22.732 24.2471 23.9264 25.2757 25.6388 25.2757L25.6375 25.2745ZM26.1397 23.8522C25.1549 23.8522 24.5273 23.3757 24.5273 22.6468C24.5273 21.8912 25.1305 21.4464 26.2786 21.3757L28.3298 21.2489V21.9278C28.3298 23.0527 27.384 23.8522 26.1323 23.8522H26.1397ZM32.3858 28.4542C34.181 28.4542 35.0268 27.7558 35.7629 25.6547L38.9999 16.4763H37.1279L34.9573 23.5658H34.9183L32.7477 16.4763H30.8184L33.9421 25.2172L33.7763 25.7498C33.4899 26.6456 33.0341 26.9929 32.2212 26.9929C32.075 26.9929 31.7959 26.9746 31.6813 26.9624V28.4042C31.7886 28.4347 32.2468 28.4481 32.3797 28.4481L32.3858 28.4542Z" fill="black"/>
</g>
<defs>
<clipPath id="clip0_39_128">
<rect width="39" height="39" fill="white" transform="translate(0 0.886047)"/>
</clipPath>
</defs>
</svg>
