<svg width="33" height="81" viewBox="0 0 33 81" fill="none" xmlns="http://www.w3.org/2000/svg">
<path d="M33 15.0113C33.0018 18.1185 31.9448 21.1498 29.9747 23.6873C28.0046 26.2248 25.2184 28.1436 22 29.1794L26.4292 75.0424C26.5833 75.7671 26.5594 76.5139 26.3592 77.2292C26.1591 77.9445 25.7876 78.6107 25.2715 79.1801C24.7553 79.7494 24.1073 80.2078 23.3737 80.5224C22.6401 80.8371 21.8391 81.0002 21.0282 81H12.3602C11.5502 80.9987 10.7505 80.8345 10.0182 80.5192C9.28601 80.204 8.63932 79.7454 8.12438 79.1762C7.60945 78.6071 7.23898 77.9414 7.03946 77.2268C6.83994 76.5122 6.81629 75.7663 6.97019 75.0424L11 29.1794C8.14837 28.2616 5.62873 26.6481 3.71641 24.5151C1.8041 22.382 0.572693 19.8115 0.156763 17.0845C-0.259167 14.3575 0.156382 11.5789 1.358 9.05235C2.55962 6.52578 4.50107 4.34847 6.97019 2.75834C9.43932 1.16822 12.3411 0.226464 15.3585 0.0359916C18.3758 -0.15448 21.3927 0.413657 24.0793 1.67833C26.7659 2.94299 29.019 4.85553 30.5922 7.20693C32.1655 9.55833 32.9984 12.2581 33 15.0113Z" fill="black"/>
</svg>
