<svg width="267" height="73" viewBox="0 0 267 73" fill="none" xmlns="http://www.w3.org/2000/svg">
<path fill-rule="evenodd" clip-rule="evenodd" d="M108.693 11.2756L111.121 6.23028L117.584 5.0333C124.177 3.83632 130.849 2.54957 133.175 0V11.3414L108.672 11.2756H108.693Z" fill="url(#paint0_linear_102_222)"/>
<path fill-rule="evenodd" clip-rule="evenodd" d="M157.693 11.2756L155.266 6.23028L148.802 5.0333C142.195 3.86625 135.516 2.57351 133.197 0.023941V11.3414L157.693 11.2756Z" fill="url(#paint1_linear_102_222)"/>
<path fill-rule="evenodd" clip-rule="evenodd" d="M3.69851 39.4585L8.61789 17.2126L5.55136 14.3518L0 39.4585H3.69851Z" fill="url(#paint2_linear_102_222)"/>
<path fill-rule="evenodd" clip-rule="evenodd" d="M8.61775 17.2126L3.69836 39.4584H7.40406L11.6915 20.0674L8.61775 17.2126Z" fill="url(#paint3_linear_102_222)"/>
<path fill-rule="evenodd" clip-rule="evenodd" d="M8.61793 17.2126L133.197 9.82122V6.78089L5.55139 14.3518L8.61793 17.2126Z" fill="url(#paint4_linear_102_222)"/>
<path fill-rule="evenodd" clip-rule="evenodd" d="M133.197 9.82122L8.61816 17.2126L11.6919 20.0674L133.197 12.8616V9.82122Z" fill="url(#paint5_linear_102_222)"/>
<path fill-rule="evenodd" clip-rule="evenodd" d="M262.687 39.4585L257.768 17.2126L260.835 14.3518L266.386 39.4585H262.687Z" fill="url(#paint6_linear_102_222)"/>
<path fill-rule="evenodd" clip-rule="evenodd" d="M257.769 17.2126L262.688 39.4584H258.99L254.702 20.0674L257.769 17.2126Z" fill="url(#paint7_linear_102_222)"/>
<path fill-rule="evenodd" clip-rule="evenodd" d="M257.768 17.2126L133.197 9.82122V6.78089L260.835 14.3518L257.768 17.2126Z" fill="url(#paint8_linear_102_222)"/>
<path fill-rule="evenodd" clip-rule="evenodd" d="M133.197 9.82122L257.768 17.2126L254.702 20.0674L133.197 12.8616V9.82122Z" fill="url(#paint9_linear_102_222)"/>
<path fill-rule="evenodd" clip-rule="evenodd" d="M3.69851 39.4585L8.61789 61.6983L5.55136 64.5591L0 39.4585H3.69851Z" fill="url(#paint10_linear_102_222)"/>
<path fill-rule="evenodd" clip-rule="evenodd" d="M8.61775 61.6983L3.69836 39.4585H7.40406L11.6915 58.8435L8.61775 61.6983Z" fill="url(#paint11_linear_102_222)"/>
<path fill-rule="evenodd" clip-rule="evenodd" d="M8.61793 61.6983L133.197 69.0897V72.13L5.55139 64.5591L8.61793 61.6983Z" fill="url(#paint12_linear_102_222)"/>
<path fill-rule="evenodd" clip-rule="evenodd" d="M133.197 69.0897L8.61816 61.6983L11.6919 58.8435L133.197 66.0494V69.0897Z" fill="url(#paint13_linear_102_222)"/>
<path fill-rule="evenodd" clip-rule="evenodd" d="M262.687 39.4585L257.768 61.6983L260.835 64.5591L266.386 39.4585H262.687Z" fill="url(#paint14_linear_102_222)"/>
<path fill-rule="evenodd" clip-rule="evenodd" d="M257.769 61.6983L262.688 39.4585H258.99L254.702 58.8435L257.769 61.6983Z" fill="url(#paint15_linear_102_222)"/>
<path fill-rule="evenodd" clip-rule="evenodd" d="M257.768 61.6983L133.197 69.0897V72.13L260.835 64.5591L257.768 61.6983Z" fill="url(#paint16_linear_102_222)"/>
<path fill-rule="evenodd" clip-rule="evenodd" d="M133.197 69.0897L257.768 61.6983L254.702 58.8435L133.197 66.0494V69.0897Z" fill="url(#paint17_linear_102_222)"/>
<g style="mix-blend-mode:screen">
<path fill-rule="evenodd" clip-rule="evenodd" d="M7.3684 22.8623L8.1871 17.2844L5.91772 14.6869L8.79036 16.9133L127.832 9.59978C131.804 9.36038 132.443 8.95341 133.197 7.11604L133.678 9.25265L228.417 15.471L133.197 9.82122L8.618 17.2126L7.3684 22.8623Z" fill="white"/>
</g>
<g style="mix-blend-mode:multiply" opacity="0.75">
<path fill-rule="evenodd" clip-rule="evenodd" d="M135.732 71.6572C134.331 71.747 133.211 71.4597 133.211 70.7415V72.13L260.835 64.5591L257.768 61.6983C258.601 63.2544 258.982 63.9008 255.851 64.0923L135.732 71.6572Z" fill="#CA9E67"/>
</g>
<path fill-rule="evenodd" clip-rule="evenodd" d="M133.197 66.0494L254.702 58.8435L258.989 39.4584L254.702 20.0674L133.197 12.8615L11.6916 20.0674L7.40417 39.4584L11.6916 58.8435L133.197 66.0494Z" fill="url(#paint18_linear_102_222)"/>
<path fill-rule="evenodd" clip-rule="evenodd" d="M133.197 61.1836L249.79 54.2651L253.065 39.4585L249.79 24.6458L133.197 17.7273L16.5967 24.6458L13.3219 39.4585L16.5967 54.2651L133.197 61.1836Z" fill="url(#paint19_radial_102_222)"/>
<path fill-rule="evenodd" clip-rule="evenodd" d="M133.197 17.7273V12.8615L11.6918 20.0674L16.5968 24.6458L133.197 17.7273Z" fill="url(#paint20_linear_102_222)"/>
<path style="mix-blend-mode:screen" opacity="0.5" fill-rule="evenodd" clip-rule="evenodd" d="M13.3218 39.4585L16.5966 24.6458L11.6916 20.0674L7.40417 39.4585H13.3218Z" fill="url(#paint21_linear_102_222)"/>
<path style="mix-blend-mode:multiply" fill-rule="evenodd" clip-rule="evenodd" d="M16.5966 54.2651L13.3218 39.4585H7.40417L11.6916 58.8435L16.5966 54.2651Z" fill="url(#paint22_linear_102_222)"/>
<path style="mix-blend-mode:screen" opacity="0.5" fill-rule="evenodd" clip-rule="evenodd" d="M253.064 39.4585L249.79 24.6458L254.702 20.0674L258.989 39.4585H253.064Z" fill="url(#paint23_linear_102_222)"/>
<path style="mix-blend-mode:multiply" fill-rule="evenodd" clip-rule="evenodd" d="M249.79 54.2651L253.064 39.4585H258.989L254.702 58.8435L249.79 54.2651Z" fill="url(#paint24_linear_102_222)"/>
<path fill-rule="evenodd" clip-rule="evenodd" d="M133.197 17.7273V12.8615L254.702 20.0674L249.79 24.6458L133.197 17.7273Z" fill="url(#paint25_linear_102_222)"/>
<path style="mix-blend-mode:multiply" fill-rule="evenodd" clip-rule="evenodd" d="M133.197 61.1836V66.0494L11.6918 58.8435L16.5968 54.2651L133.197 61.1836Z" fill="url(#paint26_linear_102_222)"/>
<path style="mix-blend-mode:multiply" fill-rule="evenodd" clip-rule="evenodd" d="M133.197 61.1836V66.0494L254.702 58.8435L249.79 54.2651L133.197 61.1836Z" fill="url(#paint27_linear_102_222)"/>
<path style="mix-blend-mode:screen" fill-rule="evenodd" clip-rule="evenodd" d="M13.9394 36.6755L15.8354 24.7057L12.3954 20.7257L16.927 24.0413L132.234 16.4704L133.197 13.2027L134.066 16.4405L241.84 24.173L133.197 17.7273L16.5966 24.6458L13.9394 36.6755Z" fill="url(#paint28_radial_102_222)"/>
<path style="mix-blend-mode:screen" fill-rule="evenodd" clip-rule="evenodd" d="M253.065 39.4585L249.79 24.6458L133.197 17.7273L16.5967 24.6458L13.3219 39.4585H253.065Z" fill="url(#paint29_radial_102_222)"/>
<g style="mix-blend-mode:screen">
<path fill-rule="evenodd" clip-rule="evenodd" d="M14.6289 39.62L95.2565 39.4585L14.6289 39.2909C13.9754 39.2909 13.6738 39.1293 13.7743 38.5368L14.6864 33.312L13.3219 39.4585L14.6864 45.599L13.7743 40.3741C13.6451 39.7816 13.9754 39.62 14.6289 39.62ZM251.707 45.6049L253.065 39.4644L251.707 33.3179L252.612 38.5428C252.713 39.1413 252.411 39.2969 251.757 39.2969L171.13 39.4644L251.757 39.626C252.411 39.626 252.713 39.7876 252.612 40.3801L251.707 45.6049Z" fill="url(#paint30_radial_102_222)"/>
</g>
<path style="mix-blend-mode:screen" fill-rule="evenodd" clip-rule="evenodd" d="M133.197 39.4585V17.7273L16.5967 24.6458L13.3219 39.4585H253.065H133.197Z" fill="url(#paint31_radial_102_222)"/>
<path style="mix-blend-mode:screen" opacity="0.5" fill-rule="evenodd" clip-rule="evenodd" d="M133.197 39.4585V61.1836L249.79 54.2651L253.065 39.4585H13.3219H133.197Z" fill="url(#paint32_radial_102_222)"/>
<path style="mix-blend-mode:screen" fill-rule="evenodd" clip-rule="evenodd" d="M117.569 60.256L132.593 61.7343L133.197 65.6125L133.714 61.7043L249.761 54.7798L253.818 58.0176L250.393 54.2711L252.949 39.9851L249.79 54.2651L133.197 61.1836L117.569 60.256Z" fill="url(#paint33_radial_102_222)"/>
<defs>
<linearGradient id="paint0_linear_102_222" x1="108.693" y1="5.68566" x2="133.197" y2="5.68566" gradientUnits="userSpaceOnUse">
<stop stop-color="#D69705"/>
<stop offset="1" stop-color="#FFDD6E"/>
</linearGradient>
<linearGradient id="paint1_linear_102_222" x1="133.197" y1="5.68566" x2="157.693" y2="5.68566" gradientUnits="userSpaceOnUse">
<stop stop-color="#E6A300"/>
<stop offset="1" stop-color="#A36808"/>
</linearGradient>
<linearGradient id="paint2_linear_102_222" x1="4.30895" y1="39.4525" x2="4.30895" y2="14.3518" gradientUnits="userSpaceOnUse">
<stop stop-color="#FFD97A"/>
<stop offset="1" stop-color="#EB9E21"/>
</linearGradient>
<linearGradient id="paint3_linear_102_222" x1="7.6985" y1="39.4525" x2="7.6985" y2="17.2126" gradientUnits="userSpaceOnUse">
<stop stop-color="#E8B048"/>
<stop offset="1" stop-color="#8F6B09"/>
</linearGradient>
<linearGradient id="paint4_linear_102_222" x1="5.55139" y1="11.9937" x2="133.197" y2="11.9937" gradientUnits="userSpaceOnUse">
<stop stop-color="#F5D36C"/>
<stop offset="1" stop-color="#FFF5B0"/>
</linearGradient>
<linearGradient id="paint5_linear_102_222" x1="8.61816" y1="14.9443" x2="133.197" y2="14.9443" gradientUnits="userSpaceOnUse">
<stop stop-color="#6B4200"/>
<stop offset="1" stop-color="#A87219"/>
</linearGradient>
<linearGradient id="paint6_linear_102_222" x1="262.077" y1="39.4525" x2="262.077" y2="14.3518" gradientUnits="userSpaceOnUse">
<stop stop-color="#FFD97A"/>
<stop offset="1" stop-color="#EB9E21"/>
</linearGradient>
<linearGradient id="paint7_linear_102_222" x1="258.695" y1="39.4525" x2="258.695" y2="17.2126" gradientUnits="userSpaceOnUse">
<stop stop-color="#E8B048"/>
<stop offset="1" stop-color="#8F6B09"/>
</linearGradient>
<linearGradient id="paint8_linear_102_222" x1="133.197" y1="11.9937" x2="260.835" y2="11.9937" gradientUnits="userSpaceOnUse">
<stop stop-color="#FFDD6E"/>
<stop offset="1" stop-color="#D69705"/>
</linearGradient>
<linearGradient id="paint9_linear_102_222" x1="133.197" y1="14.9443" x2="257.768" y2="14.9443" gradientUnits="userSpaceOnUse">
<stop stop-color="#BF8800"/>
<stop offset="1" stop-color="#A36808"/>
</linearGradient>
<linearGradient id="paint10_linear_102_222" x1="4.30895" y1="64.5591" x2="4.30895" y2="39.4525" gradientUnits="userSpaceOnUse">
<stop stop-color="#E8B048"/>
<stop offset="1" stop-color="#C27C0C"/>
</linearGradient>
<linearGradient id="paint11_linear_102_222" x1="7.6985" y1="61.6983" x2="7.6985" y2="39.4525" gradientUnits="userSpaceOnUse">
<stop stop-color="#FFD97A"/>
<stop offset="1" stop-color="#FCBC53"/>
</linearGradient>
<linearGradient id="paint12_linear_102_222" x1="5.55139" y1="66.9172" x2="133.197" y2="66.9172" gradientUnits="userSpaceOnUse">
<stop stop-color="#A36808"/>
<stop offset="1" stop-color="#BF8800"/>
</linearGradient>
<linearGradient id="paint13_linear_102_222" x1="8.61816" y1="63.9666" x2="133.197" y2="63.9666" gradientUnits="userSpaceOnUse">
<stop stop-color="#D69705"/>
<stop offset="1" stop-color="#FFDD6E"/>
</linearGradient>
<linearGradient id="paint14_linear_102_222" x1="262.077" y1="64.5591" x2="262.077" y2="39.4525" gradientUnits="userSpaceOnUse">
<stop stop-color="#E8B048"/>
<stop offset="1" stop-color="#C27C0C"/>
</linearGradient>
<linearGradient id="paint15_linear_102_222" x1="258.695" y1="61.6983" x2="258.695" y2="39.4525" gradientUnits="userSpaceOnUse">
<stop stop-color="#FFD97A"/>
<stop offset="1" stop-color="#FCBC53"/>
</linearGradient>
<linearGradient id="paint16_linear_102_222" x1="133.197" y1="66.9172" x2="260.835" y2="66.9172" gradientUnits="userSpaceOnUse">
<stop stop-color="#A87219"/>
<stop offset="1" stop-color="#6B4200"/>
</linearGradient>
<linearGradient id="paint17_linear_102_222" x1="133.197" y1="63.9666" x2="257.768" y2="63.9666" gradientUnits="userSpaceOnUse">
<stop stop-color="#FFF5B0"/>
<stop offset="1" stop-color="#F5D36C"/>
</linearGradient>
<linearGradient id="paint18_linear_102_222" x1="133.197" y1="66.0494" x2="133.197" y2="12.8615" gradientUnits="userSpaceOnUse">
<stop stop-color="#1144FF"/>
<stop offset="1" stop-color="#00FFC0"/>
</linearGradient>
<radialGradient id="paint19_radial_102_222" cx="0" cy="0" r="1" gradientUnits="userSpaceOnUse" gradientTransform="translate(133.197 61.1178) scale(185.917 154.937)">
<stop stop-color="#009FFF"/>
<stop offset="1" stop-color="#1602F2"/>
</radialGradient>
<linearGradient id="paint20_linear_102_222" x1="11.6918" y1="18.7507" x2="133.197" y2="18.7507" gradientUnits="userSpaceOnUse">
<stop stop-color="#2DBCFF"/>
<stop offset="1" stop-color="#AEF5FF"/>
</linearGradient>
<linearGradient id="paint21_linear_102_222" x1="12.0004" y1="39.4525" x2="12.0004" y2="20.0674" gradientUnits="userSpaceOnUse">
<stop stop-color="#5CEAFF"/>
<stop offset="0.93" stop-color="#0090FF"/>
</linearGradient>
<linearGradient id="paint22_linear_102_222" x1="12.0004" y1="58.8435" x2="12.0004" y2="39.4525" gradientUnits="userSpaceOnUse">
<stop stop-color="#A4BEE6"/>
<stop offset="1" stop-color="white"/>
</linearGradient>
<linearGradient id="paint23_linear_102_222" x1="254.386" y1="39.4525" x2="254.386" y2="20.0674" gradientUnits="userSpaceOnUse">
<stop stop-color="#5CEAFF"/>
<stop offset="0.93" stop-color="#0090FF"/>
</linearGradient>
<linearGradient id="paint24_linear_102_222" x1="254.386" y1="58.8435" x2="254.386" y2="39.4525" gradientUnits="userSpaceOnUse">
<stop stop-color="#A4BEE6"/>
<stop offset="1" stop-color="white"/>
</linearGradient>
<linearGradient id="paint25_linear_102_222" x1="133.197" y1="18.7507" x2="254.702" y2="18.7507" gradientUnits="userSpaceOnUse">
<stop stop-color="#53AAFF"/>
<stop offset="1" stop-color="#0077ED"/>
</linearGradient>
<linearGradient id="paint26_linear_102_222" x1="11.6918" y1="60.1602" x2="133.197" y2="60.1602" gradientUnits="userSpaceOnUse">
<stop stop-color="#5474A1"/>
<stop offset="1" stop-color="#A4BEE6"/>
</linearGradient>
<linearGradient id="paint27_linear_102_222" x1="133.197" y1="60.1602" x2="254.702" y2="60.1602" gradientUnits="userSpaceOnUse">
<stop stop-color="#8AA0C2"/>
<stop offset="1" stop-color="#5474A1"/>
</linearGradient>
<radialGradient id="paint28_radial_102_222" cx="0" cy="0" r="1" gradientUnits="userSpaceOnUse" gradientTransform="translate(43.5922 22.0244) scale(176.933 147.45)">
<stop stop-color="#9FFDFF"/>
<stop offset="1" stop-color="#000817"/>
</radialGradient>
<radialGradient id="paint29_radial_102_222" cx="0" cy="0" r="1" gradientUnits="userSpaceOnUse" gradientTransform="translate(133.197 6.5415) scale(208.503 173.76)">
<stop stop-color="#000817"/>
<stop offset="1" stop-color="#00C5FF"/>
</radialGradient>
<radialGradient id="paint30_radial_102_222" cx="0" cy="0" r="1" gradientUnits="userSpaceOnUse" gradientTransform="translate(133.197 39.4585) scale(120.098 100.086)">
<stop offset="0.59" stop-color="#000817"/>
<stop offset="1" stop-color="#50FBFF"/>
</radialGradient>
<radialGradient id="paint31_radial_102_222" cx="0" cy="0" r="1" gradientUnits="userSpaceOnUse" gradientTransform="translate(131.48 114.03) scale(145.247 121.045)">
<stop stop-color="#0099FF"/>
<stop offset="1" stop-color="#000817"/>
</radialGradient>
<radialGradient id="paint32_radial_102_222" cx="0" cy="0" r="1" gradientUnits="userSpaceOnUse" gradientTransform="translate(235.786 -17.1408) rotate(180) scale(145.247 121.045)">
<stop stop-color="#00C5FF"/>
<stop offset="1" stop-color="#000817"/>
</radialGradient>
<radialGradient id="paint33_radial_102_222" cx="0" cy="0" r="1" gradientUnits="userSpaceOnUse" gradientTransform="translate(224.209 68.186) scale(99.2063 82.6754)">
<stop stop-color="#50FBFF"/>
<stop offset="1" stop-color="#000817"/>
</radialGradient>
</defs>
</svg>
