<svg width="45" height="19" viewBox="0 0 45 19" fill="none" xmlns="http://www.w3.org/2000/svg">
<g clip-path="url(#clip0_40_140)">
<path d="M7.5 15.4173C11.3833 15.4173 14.5312 12.2693 14.5312 8.38605C14.5312 4.5028 11.3833 1.3548 7.5 1.3548C3.61675 1.3548 0.46875 4.5028 0.46875 8.38605C0.46875 12.2693 3.61675 15.4173 7.5 15.4173Z" fill="#4BD37B"/>
<path d="M12.2266 2.76105L6.71875 8.38605L4.88281 6.51105L3.04688 8.38605L6.71875 12.136L14.0625 4.63605L12.2266 2.76105Z" fill="white"/>
</g>
<path d="M19.2168 13.886V3.07159H23.4414C24.5716 3.07159 25.4512 3.37693 26.0801 3.98761C26.7181 4.58917 27.0371 5.3867 27.0371 6.38019C27.0371 7.40102 26.709 8.20766 26.0527 8.80011C25.4056 9.39256 24.5443 9.68878 23.4688 9.68878H21.0215V13.886H19.2168ZM21.0215 8.15753H23.2227C23.8424 8.15753 24.3255 8.00714 24.6719 7.70636C25.0182 7.40558 25.1914 6.96352 25.1914 6.38019C25.1914 5.80597 25.0228 5.36847 24.6855 5.06769C24.3483 4.76691 23.8561 4.61652 23.209 4.61652H21.0215V8.15753ZM30.2489 11.6712C30.2489 11.9629 30.3628 12.209 30.5907 12.4095C30.8277 12.6009 31.1376 12.6966 31.5204 12.6966C32.0673 12.6966 32.5321 12.5143 32.9149 12.1497C33.3068 11.7851 33.5028 11.3066 33.5028 10.7142V9.98956C33.0835 10.0898 32.5777 10.1855 31.9852 10.2767C30.8277 10.459 30.2489 10.9238 30.2489 11.6712ZM28.4989 11.8216C28.4989 10.3359 29.6018 9.42902 31.8075 9.10089C32.6096 8.9824 33.1747 8.87303 33.5028 8.77277V8.34894C33.5028 7.96613 33.3661 7.66534 33.0927 7.44659C32.8192 7.22784 32.4546 7.11847 31.9989 7.11847C31.133 7.11847 30.3856 7.47394 29.7567 8.18488L28.704 7.28253C29.1141 6.79946 29.6018 6.42576 30.1669 6.16144C30.7411 5.888 31.3427 5.75128 31.9716 5.75128C33.1473 5.75128 33.9859 6.03839 34.4872 6.61261C34.9885 7.17771 35.2391 7.97068 35.2391 8.99152V13.886H33.5575V12.9017C33.3934 13.2389 33.1063 13.5306 32.6962 13.7767C32.2951 14.0137 31.8212 14.1321 31.2743 14.1321C30.4084 14.1321 29.7294 13.9179 29.2372 13.4896C28.745 13.0612 28.4989 12.5052 28.4989 11.8216ZM37.2888 5.99738H39.1892L40.5427 10.0579C40.7706 10.8053 40.9438 11.4114 41.0623 11.8763H41.117C41.1625 11.7122 41.3311 11.1061 41.6228 10.0579L42.867 5.99738H44.7537L41.4861 14.9251C41.1944 15.7272 40.8162 16.2923 40.3513 16.6204C39.8956 16.9485 39.3259 17.1126 38.6423 17.1126H38.1091V15.6634H38.3552C38.7654 15.6634 39.0981 15.5722 39.3533 15.39C39.6176 15.2168 39.8272 14.9114 39.9822 14.4739L40.242 13.6946L37.2888 5.99738Z" fill="black"/>
<defs>
<clipPath id="clip0_40_140">
<rect width="15" height="15" fill="white" transform="translate(0 0.886047)"/>
</clipPath>
</defs>
</svg>
