<svg width="24" height="24" viewBox="0 0 24 24" fill="none" xmlns="http://www.w3.org/2000/svg">
<path d="M12.006 0.470162C11.8869 0.309424 11.7283 0.182162 11.5456 0.100698C11.3628 0.0192332 11.1622 -0.013674 10.963 0.005162H10.968C4.813 0.596162 0.034 5.72416 0 11.9762V11.9792C0.008 18.6142 5.385 23.9912 12.019 24.0002H12.08C18.323 24.0002 23.447 19.2142 23.985 13.1112L23.988 13.0662C24.0052 12.8762 23.9757 12.685 23.9019 12.5091C23.8282 12.3332 23.7125 12.178 23.565 12.0572L23.563 12.0552C23.4141 11.9326 23.2371 11.849 23.0479 11.8119C22.8587 11.7747 22.6632 11.7851 22.479 11.8422L22.487 11.8402L21.963 11.9962C21.1771 12.2538 20.355 12.3838 19.528 12.3812H19.521C17.4257 12.3788 15.4169 11.5454 13.9354 10.0638C12.4538 8.58221 11.6204 6.57344 11.618 4.47816V4.46016C11.618 3.43016 11.816 2.44616 12.176 1.54516L12.157 1.59816C12.2305 1.41171 12.2549 1.20948 12.2278 1.0109C12.2006 0.812309 12.1229 0.624037 12.002 0.464162L12.004 0.467162L12.006 0.470162Z" fill="white"/>
</svg>
