<svg width="24" height="24" viewBox="0 0 24 24" fill="none" xmlns="http://www.w3.org/2000/svg">
<path fill-rule="evenodd" clip-rule="evenodd" d="M12 0C12.3978 0 12.7794 0.158035 13.0607 0.43934C13.342 0.720644 13.5 1.10218 13.5 1.5V3C13.5 3.39782 13.342 3.77936 13.0607 4.06066C12.7794 4.34196 12.3978 4.5 12 4.5C11.6022 4.5 11.2206 4.34196 10.9393 4.06066C10.658 3.77936 10.5 3.39782 10.5 3V1.5C10.5 1.10218 10.658 0.720644 10.9393 0.43934C11.2206 0.158035 11.6022 0 12 0ZM18 12C18 13.5913 17.3679 15.1174 16.2426 16.2426C15.1174 17.3679 13.5913 18 12 18C10.4087 18 8.88258 17.3679 7.75736 16.2426C6.63214 15.1174 6 13.5913 6 12C6 10.4087 6.63214 8.88258 7.75736 7.75736C8.88258 6.63214 10.4087 6 12 6C13.5913 6 15.1174 6.63214 16.2426 7.75736C17.3679 8.88258 18 10.4087 18 12ZM17.304 19.425L18.3645 20.4855C18.6474 20.7587 19.0263 20.9099 19.4196 20.9065C19.8129 20.9031 20.1891 20.7453 20.4672 20.4672C20.7453 20.1891 20.9031 19.8129 20.9065 19.4196C20.9099 19.0263 20.7587 18.6474 20.4855 18.3645L19.425 17.304C19.1421 17.0308 18.7632 16.8796 18.3699 16.883C17.9766 16.8864 17.6004 17.0442 17.3223 17.3223C17.0442 17.6004 16.8864 17.9766 16.883 18.3699C16.8796 18.7632 17.0308 19.1421 17.304 19.425ZM20.484 3.5145C20.7652 3.79579 20.9232 4.17725 20.9232 4.575C20.9232 4.97275 20.7652 5.35421 20.484 5.6355L19.425 6.696C19.2866 6.83927 19.1211 6.95354 18.9381 7.03215C18.7551 7.11077 18.5583 7.15214 18.3591 7.15388C18.1599 7.15561 17.9624 7.11765 17.7781 7.04223C17.5937 6.96681 17.4262 6.85543 17.2854 6.71459C17.1446 6.57375 17.0332 6.40628 16.9578 6.22193C16.8823 6.03759 16.8444 5.84007 16.8461 5.6409C16.8479 5.44173 16.8892 5.2449 16.9678 5.06189C17.0465 4.87889 17.1607 4.71337 17.304 4.575L18.3645 3.5145C18.6458 3.23329 19.0273 3.07532 19.425 3.07532C19.8227 3.07532 20.2042 3.23329 20.4855 3.5145H20.484ZM22.5 13.5C22.8978 13.5 23.2794 13.342 23.5607 13.0607C23.842 12.7794 24 12.3978 24 12C24 11.6022 23.842 11.2206 23.5607 10.9393C23.2794 10.658 22.8978 10.5 22.5 10.5H21C20.6022 10.5 20.2206 10.658 19.9393 10.9393C19.658 11.2206 19.5 11.6022 19.5 12C19.5 12.3978 19.658 12.7794 19.9393 13.0607C20.2206 13.342 20.6022 13.5 21 13.5H22.5ZM12 19.5C12.3978 19.5 12.7794 19.658 13.0607 19.9393C13.342 20.2206 13.5 20.6022 13.5 21V22.5C13.5 22.8978 13.342 23.2794 13.0607 23.5607C12.7794 23.842 12.3978 24 12 24C11.6022 24 11.2206 23.842 10.9393 23.5607C10.658 23.2794 10.5 22.8978 10.5 22.5V21C10.5 20.6022 10.658 20.2206 10.9393 19.9393C11.2206 19.658 11.6022 19.5 12 19.5ZM4.575 6.696C4.71427 6.83537 4.87962 6.94594 5.06162 7.0214C5.24362 7.09686 5.4387 7.13573 5.63572 7.1358C5.83274 7.13587 6.02785 7.09714 6.2099 7.0218C6.39195 6.94647 6.55738 6.83602 6.69675 6.69675C6.83612 6.55748 6.94669 6.39213 7.02215 6.21013C7.09761 6.02813 7.13648 5.83305 7.13655 5.63603C7.13662 5.43901 7.09789 5.2439 7.02255 5.06185C6.94722 4.8798 6.83677 4.71437 6.6975 4.575L5.6355 3.5145C5.3526 3.24126 4.97369 3.09007 4.5804 3.09349C4.1871 3.09691 3.81088 3.25466 3.53277 3.53277C3.25466 3.81088 3.09691 4.1871 3.09349 4.5804C3.09007 4.97369 3.24126 5.3526 3.5145 5.6355L4.575 6.696ZM6.696 19.425L5.6355 20.4855C5.3526 20.7587 4.97369 20.9099 4.5804 20.9065C4.1871 20.9031 3.81088 20.7453 3.53277 20.4672C3.25466 20.1891 3.09691 19.8129 3.09349 19.4196C3.09007 19.0263 3.24126 18.6474 3.5145 18.3645L4.575 17.304C4.8579 17.0308 5.23681 16.8796 5.6301 16.883C6.0234 16.8864 6.39962 17.0442 6.67773 17.3223C6.95584 17.6004 7.11359 17.9766 7.11701 18.3699C7.12043 18.7632 6.96924 19.1421 6.696 19.425ZM3 13.5C3.39782 13.5 3.77936 13.342 4.06066 13.0607C4.34196 12.7794 4.5 12.3978 4.5 12C4.5 11.6022 4.34196 11.2206 4.06066 10.9393C3.77936 10.658 3.39782 10.5 3 10.5H1.5C1.10218 10.5 0.720644 10.658 0.43934 10.9393C0.158035 11.2206 0 11.6022 0 12C0 12.3978 0.158035 12.7794 0.43934 13.0607C0.720644 13.342 1.10218 13.5 1.5 13.5H3Z" fill="white"/>
</svg>
